<svg width="179px" height="67px" viewBox="0 0 179 67" version="1.1" xmlns="http://www.w3.org/2000/svg" xmlns:xlink="http://www.w3.org/1999/xlink">
    <g id="Page-1" stroke="none" stroke-width="1" fill="none" fill-rule="evenodd">
        <g id="lbsp-logo-(1)" class="svg-element" fill="#E62E41" fill-rule="nonzero">
            <g id="Group">
                <path d="M5.8518102,23.0500005 C5.8518102,21.4489239 4.54180039,20.1517525 2.92549915,20.1517525 C1.31000982,20.1517525 0,21.4489239 0,23.0500005 C0,24.6496712 1.31000982,25.9472443 2.92549915,25.9472443 C4.54180039,25.9472443 5.8518102,24.6496712 5.8518102,23.0500005 Z" id="Path"></path>
                <path d="M52.6660889,2.89784635 C52.6660889,1.29737226 51.3554701,0 49.7391689,0 C48.2704315,0 47.0576474,1.07381206 46.8487847,2.47181654 L40.9263387,2.47181654 C40.7188968,1.07381206 39.5063156,0 38.0359544,0 C36.4204651,0 35.1106583,1.29737226 35.1106583,2.89784635 C35.1106583,4.35289584 36.1949583,5.55405486 37.6058474,5.76074259 C37.6058474,7.17622212 37.6058474,8.80059888 37.6058474,10.1134376 C36.335621,10.2994364 35.3335264,11.2921 35.1455702,12.5505049 C33.3695265,12.5505049 31.0007917,12.5505049 29.224748,12.5505049 C29.0367918,11.2921 28.0342913,10.2994364 26.763253,10.1134376 C26.763253,8.79758593 26.763253,7.17099969 26.763253,5.76074259 C28.1741421,5.55405486 29.25966,4.35289584 29.25966,2.89784635 C29.259457,1.29737226 27.9484323,0 26.33274,0 C24.8361948,0 23.6043309,1.11318115 23.4301772,2.54874696 L17.5316824,2.54874696 C17.3575286,1.11318115 16.1256647,0 14.6293225,0 C13.1329804,0 11.9013194,1.11318115 11.7267597,2.54874696 L5.82846792,2.54874696 C5.65411117,1.11318115 4.42245025,0 2.92549915,0 C1.31000982,0 0,1.29737226 0,2.89784635 C0,4.49811958 1.31000982,5.79549184 2.92549915,5.79549184 C3.67651191,5.79549184 4.35912161,5.51307886 4.87711743,5.05270153 C7.101739,6.98962066 10.3067367,9.78000546 12.1737138,11.4051857 C11.9514546,11.7446436 11.8012521,12.133313 11.7387353,12.5505049 C10.0572787,12.5505049 7.68042478,12.5505049 5.81750719,12.5505049 C5.60884743,11.1527012 4.39565736,10.0788892 2.92610808,10.0788892 C1.31000982,10.0788892 0,11.3760606 0,12.9763338 C0,14.5768079 1.31000982,15.874381 2.92610808,15.874381 C4.39545439,15.874381 5.60884743,14.8003681 5.81750719,13.4025645 L11.7387353,13.4025645 C11.9473951,14.8003681 13.1607881,15.874381 14.6301344,15.874381 C16.2454208,15.874381 17.5558366,14.5770088 17.5558366,12.9763338 C17.5558366,11.3760606 16.2454208,10.0788892 14.6301344,10.0788892 C13.9099741,10.0788892 13.2515186,10.3376003 12.7416418,10.7652371 L5.42677758,4.39668391 C5.61087719,4.09599243 5.74118806,3.76035084 5.80492265,3.40080658 C7.38955957,3.40080658 9.49584588,3.40080658 11.750508,3.40080658 C11.991441,4.76084801 13.1871751,5.79549184 14.6293225,5.79549184 C16.07147,5.79549184 17.2672041,4.76104887 17.5079341,3.40080658 C19.7999439,3.40080658 21.916176,3.40080658 23.4539254,3.40080658 C23.6696893,4.62265446 24.6573726,5.57835925 25.90243,5.76074259 C25.90243,7.06554677 25.90243,8.69373991 25.90243,10.1134376 C24.4915409,10.3201253 23.4068349,11.5214852 23.4068349,12.9763338 C23.4068349,14.5768079 24.7172506,15.874381 26.332537,15.874381 C27.8020863,15.874381 29.0154793,14.8003681 29.224545,13.4025645 L35.1453672,13.4025645 C35.353824,14.8003681 36.5666081,15.874381 38.0357514,15.874381 C39.6528646,15.874381 40.9618595,14.5770088 40.9618595,12.9763338 C40.9618595,11.5212843 39.8779654,10.3199244 38.4654525,10.1134376 C38.4654525,8.69795803 38.4654525,7.07358128 38.4654525,5.76074259 C39.7368968,5.57494458 40.7381795,4.58228105 40.9261357,3.32387616 C42.7029913,3.32387616 45.072538,3.32387616 46.8485817,3.32387616 C47.0365378,4.58228105 48.0394443,5.57474372 49.3088589,5.76074259 C49.3088589,7.09909084 49.3088589,8.74777198 49.3088589,10.1134376 C47.8975638,10.3201253 46.8136697,11.5214852 46.8136697,12.9763338 C46.8136697,13.5501986 46.9841699,14.0832882 47.2744262,14.5334215 C45.2026459,16.316279 42.0161191,19.0592602 39.9372346,20.8489469 C39.425125,20.4150835 38.7622041,20.1517525 38.0359544,20.1517525 C36.567623,20.1517525 35.3548389,21.2251628 35.1455702,22.623569 C33.5883351,22.623569 31.4956482,22.623569 29.224748,22.623569 C29.0150734,21.2253637 27.8014773,20.1517525 26.33274,20.1517525 C24.8635966,20.1517525 23.6510155,21.2251628 23.4417468,22.623569 C21.2739586,22.623569 19.2060349,22.623569 17.5199097,22.623569 C17.311047,21.2253637 16.0986688,20.1517525 14.6293225,20.1517525 C13.0136302,20.1517525 11.7034174,21.4489239 11.7034174,23.0500005 C11.7034174,24.6496712 13.0134273,25.9472443 14.6293225,25.9472443 C15.3551662,25.9472443 16.0180872,25.6839133 16.5291818,25.2502507 C18.843113,27.2432105 21.9413451,29.9112699 23.8682003,31.5705968 C23.5773351,32.020931 23.4070378,32.5544224 23.4070378,33.128488 C23.4070378,33.6665992 23.5578493,34.1689568 23.8160353,34.6010125 C21.8727391,36.2531083 18.8297166,38.8402201 16.5433902,40.7841694 C16.0302658,40.3436775 15.3622704,40.0753249 14.6299315,40.0753249 C13.0142392,40.0753249 11.7040264,41.3726972 11.7040264,42.9725687 C11.7040264,44.5734445 13.0140362,45.8710176 14.6299315,45.8710176 C16.0992778,45.8710176 17.3120619,44.7972055 17.5205187,43.3987993 L23.4417468,43.3987993 C23.6504066,44.7972055 24.8637996,45.8710176 26.33274,45.8710176 C27.9492442,45.8710176 29.259457,44.5734445 29.259457,42.9725687 C29.259457,41.5179209 28.174751,40.316561 26.76305,40.110275 C26.76305,38.7799613 26.76305,37.2640504 26.76305,35.9911834 C28.174751,35.7848974 29.259457,34.5841401 29.259457,33.1286889 C29.259457,31.527813 27.9492442,30.2308425 26.33274,30.2308425 C25.6068963,30.2308425 24.9437723,30.4943744 24.4326777,30.9276353 C22.3481099,29.1325252 19.023965,26.269629 17.0936593,24.6072892 C17.311047,24.271045 17.4588138,23.8875981 17.5201127,23.4756286 C18.9565768,23.4756286 21.0866114,23.4756286 23.4419498,23.4756286 C23.6502036,24.8732314 24.8631907,25.9472443 26.3329429,25.9472443 C27.8024922,25.9472443 29.0158853,24.8730305 29.224951,23.4756286 C31.4451071,23.4756286 33.5386059,23.4756286 35.1449613,23.4756286 C35.3534181,24.8732314 36.5670141,25.9472443 38.0361574,25.9472443 C38.7869672,25.9472443 39.468562,25.6652331 39.9857459,25.20586 L47.2829512,31.5579424 C46.9876205,32.0108879 46.8138727,32.5494008 46.8138727,33.1288897 C46.8138727,34.7293638 48.1244915,36.0261335 49.7391689,36.0261335 C51.3554701,36.0261335 52.6660889,34.7293638 52.6660889,33.1288897 C52.6660889,31.6730368 51.5813829,30.4722795 50.1692759,30.2659935 L50.1692759,25.9126959 C51.5813829,25.7064099 52.6660889,24.50505 52.6660889,23.0504023 C52.6660889,21.4493256 51.3554701,20.1521542 49.7391689,20.1521542 C48.2476981,20.1521542 47.0192848,21.2591086 46.8388388,22.6888494 C44.9645545,22.6888494 42.6648317,22.6888494 40.9370964,22.6888494 C40.8816838,22.2527764 40.7294515,21.8470338 40.501509,21.4931137 C42.5192976,19.7560529 45.683294,17.0329571 47.8387007,15.1769857 C48.3502012,15.61105 49.0129193,15.8745819 49.7391689,15.8745819 C51.3554701,15.8745819 52.6660889,14.5772096 52.6660889,12.9765347 C52.6660889,11.5214852 51.5813829,10.3201253 50.1692759,10.1136384 L50.1692759,5.76074259 C51.5813829,5.55425572 52.6660889,4.35289584 52.6660889,2.89784635 Z M25.9026329,35.9911834 C25.9026329,37.24999 25.9026329,38.8161166 25.9026329,40.110275 C24.6322035,40.296073 23.629703,41.2885357 23.4417468,42.5465388 C21.6344448,42.5465388 19.2289712,42.5465388 17.5205187,42.5465388 C17.4600317,42.140997 17.3157155,41.7633751 17.1038081,41.4307465 C19.0290394,39.7941171 22.3162426,36.9993133 24.3583883,35.2626543 C24.7791584,35.6440926 25.3115656,35.9048124 25.9026329,35.9911834 Z M40.9163928,23.5405073 C42.5842501,23.5405073 45.0270713,23.5405073 46.8585275,23.5405073 C47.0706379,24.7679793 48.0605539,25.7295091 49.3088589,25.9122942 C49.3088589,27.2691218 49.3088589,28.9451203 49.3088589,30.2655918 C48.7581838,30.3461377 48.2566291,30.5765272 47.8506763,30.9173913 C45.8775425,29.2002159 42.5529917,26.3063868 40.5352031,24.5498424 C40.7225503,24.2453345 40.8536731,23.9050731 40.9163928,23.5405073 Z" id="Shape"></path>
                <path d="M2.49579807,35.9911834 L2.49579807,40.110275 C1.08450302,40.316561 0.000608929262,41.5179209 0.000608929262,42.9725687 C0.000608929262,44.5734445 1.31000982,45.8710176 2.92610808,45.8710176 C4.54240932,45.8710176 5.85241913,44.5734445 5.85241913,42.9725687 C5.85241913,42.4107557 5.68800823,41.88791 5.40830673,41.4438026 L12.7047001,35.307045 C13.2196513,35.7531611 13.8917062,36.0259326 14.6299315,36.0259326 C16.2452178,36.0259326 17.5556336,34.729163 17.5556336,33.1286889 C17.5556336,31.527813 16.2452178,30.2308425 14.6299315,30.2308425 C13.1607881,30.2308425 11.9471921,31.3044537 11.7385324,32.702659 L5.81730421,32.702659 C5.60864445,31.3044537 4.39545439,30.2308425 2.9259051,30.2308425 C1.31000982,30.2308425 0,31.527813 0,33.1286889 C0,34.5841401 1.08430004,35.7848974 2.49579807,35.9911834 Z M3.35601214,35.9911834 C4.62684751,35.8053854 5.629754,34.8133244 5.81730421,33.5545178 C7.62501221,33.5545178 10.0308917,33.5545178 11.7385324,33.5545178 C11.7986134,33.9552389 11.939885,34.328241 12.1473269,34.657455 C10.1953026,36.2995076 6.84923634,39.113996 4.85113645,40.7942125 C4.43868836,40.4366769 3.92454909,40.1930304 3.35601214,40.110275 C3.35601214,38.8550839 3.35601214,37.2875513 3.35601214,35.9911834 Z" id="Shape"></path>
                <path d="M40.9620625,33.1286889 C40.9620625,31.527813 39.6530676,30.2308425 38.0359544,30.2308425 C36.4204651,30.2308425 35.1106583,31.527813 35.1106583,33.1286889 C35.1106583,34.729163 36.4204651,36.0259326 38.0359544,36.0259326 C39.6528646,36.0257318 40.9620625,34.729163 40.9620625,33.1286889 Z" id="Path"></path>
                <path d="M14.6299315,55.9432783 C16.2452178,55.9432783 17.5556336,54.6465086 17.5556336,53.045432 C17.5556336,51.4443553 16.2452178,50.1483891 14.6299315,50.1483891 C13.0142392,50.1483891 11.7036204,51.4443553 11.7036204,53.045432 C11.7036204,54.6465086 13.0142392,55.9432783 14.6299315,55.9432783 Z" id="Path"></path>
                <path d="M26.33274,66.0233727 C27.8022893,66.0233727 29.0156823,64.9491589 29.224748,63.5511544 L35.1455702,63.5511544 C35.354027,64.9491589 36.567623,66.0233727 38.0367663,66.0233727 C39.6530676,66.0233727 40.9620625,64.7257995 40.9620625,63.1255263 C40.9620625,61.5258557 39.6530676,60.22768 38.0367663,60.22768 C36.567623,60.22768 35.354027,61.3018937 35.1455702,62.6990948 C33.3155348,62.6990948 30.9754196,62.6990948 29.224748,62.6990948 C29.0367918,61.4412925 28.0342913,60.4480264 26.763253,60.2630318 C26.763253,58.9670656 26.763253,57.3569501 26.763253,55.9087299 C28.174954,55.7018413 29.25966,54.501084 29.25966,53.045432 C29.25966,51.4443553 27.9494472,50.1483891 26.3329429,50.1483891 C24.7176566,50.1483891 23.4072408,51.4443553 23.4072408,53.045432 C23.4072408,53.620301 23.577538,54.1541941 23.8684032,54.6045283 L16.5301967,60.9248744 C16.0186961,60.4916136 15.3557751,60.22768 14.6301344,60.22768 C13.1609911,60.22768 11.948004,61.3018937 11.7395472,62.6990948 C9.9097148,62.6990948 7.56858477,62.6990948 5.81750719,62.6990948 C5.62995698,61.4412925 4.62725346,60.4480264 3.35621511,60.2630318 C3.35621511,58.9325172 3.35621511,57.2916697 3.35621511,55.9087299 C4.76771314,55.7018413 5.85262211,54.501084 5.85262211,53.045432 C5.85262211,51.4443553 4.54200336,50.1483891 2.92631106,50.1483891 C1.31000982,50.1485899 0,51.4445561 0,53.045432 C0,54.501084 1.08430004,55.7018413 2.49579807,55.9087299 L2.49579807,60.2630318 C1.08450302,60.4689161 0.000608929262,61.6706777 0.000608929262,63.1255263 C0.000608929262,64.7257995 1.31000982,66.0233727 2.92610808,66.0233727 C4.39606332,66.0233727 5.60884743,64.9491589 5.81750719,63.5511544 L11.7395472,63.5511544 C11.948004,64.9491589 13.1607881,66.0233727 14.6301344,66.0233727 C16.0994807,66.0233727 17.3122649,64.9491589 17.5207216,63.5511544 L23.4419498,63.5511544 C23.6506095,64.9491589 24.8640026,66.0233727 26.33274,66.0233727 Z M17.5205187,62.6990948 C17.4590168,62.2875271 17.31125,61.9036784 17.0940652,61.567836 C19.0544115,59.8791832 22.432954,56.969285 24.4332866,55.2468873 C24.8414722,55.5931746 25.3460716,55.8271797 25.9026329,55.9087299 C25.9026329,57.2257867 25.9026329,58.8987723 25.9026329,60.2630318 C24.6322035,60.4480264 23.629703,61.4412925 23.4417468,62.6990948 C21.6348507,62.6990948 19.2295801,62.6990948 17.5205187,62.6990948 Z" id="Shape"></path>
                <path d="M40.9263387,43.3987993 C42.6774162,43.3987993 45.0187492,43.3987993 46.8487847,43.3987993 C47.0576474,44.7972055 48.2704315,45.8710176 49.7391689,45.8710176 C51.3554701,45.8710176 52.6660889,44.5734445 52.6660889,42.9725687 C52.6660889,41.3726972 51.3554701,40.0753249 49.7391689,40.0753249 C48.2704315,40.0753249 47.0576474,41.149137 46.8487847,42.5465388 L40.9263387,42.5465388 C40.7182878,41.149137 39.5063156,40.0753249 38.0367663,40.0753249 C36.4204651,40.0753249 35.1106583,41.3726972 35.1106583,42.9725687 C35.1106583,44.4288233 36.1949583,45.6295806 37.6066593,45.8364692 C37.6066593,47.2417047 37.6066593,48.8586496 37.6066593,50.1831383 C36.1953642,50.3892234 35.1106583,51.5891773 35.1106583,53.0456328 C35.1106583,54.6467095 36.4204651,55.9434792 38.0359544,55.9434792 C38.7875761,55.9434792 39.4697799,55.6616688 39.9871668,55.2006889 C41.9883113,56.9433738 45.0408737,59.6011892 47.2835601,61.5547799 C46.9874175,62.0075245 46.8138727,62.5464391 46.8138727,63.1257272 C46.8138727,64.7260004 48.1244915,66.0235735 49.7391689,66.0235735 C51.3554701,66.0235735 52.6660889,64.7260004 52.6660889,63.1257272 C52.6660889,61.6708785 51.5813829,60.4691169 50.1692759,60.2632327 L50.1692759,55.9089308 C51.5813829,55.7020422 52.6660889,54.5012849 52.6660889,53.0456328 C52.6660889,51.4445561 51.3554701,50.1485899 49.7391689,50.1485899 C48.2704315,50.1485899 47.0572414,51.2220003 46.8487847,52.6206073 C44.9665843,52.6206073 42.6556978,52.6206073 40.9271506,52.6206073 C40.7391944,51.361399 39.7379117,50.3691372 38.4668734,50.1831383 C38.4668734,48.8369564 38.4668734,47.1826511 38.4668734,45.8364692 C39.7377087,45.6504703 40.7391944,44.657606 40.9263387,43.3987993 Z M40.9263387,53.4726669 C42.6291078,53.4726669 45.0394528,53.4726669 46.8487847,53.4726669 C47.0367408,54.7304692 48.0396473,55.722731 49.3090618,55.9087299 C49.3090618,57.272186 49.3090618,58.9451715 49.3090618,60.2630318 C48.7583868,60.3429752 48.257644,60.5739673 47.8516911,60.9142287 C45.8805871,59.1984594 42.5584721,56.3054338 40.5370299,54.5446712 C40.73412,54.2222866 40.8688963,53.8611354 40.9263387,53.4726669 Z" id="Shape"></path>
            </g>
            
        </g>
    </g>
</svg>